<svg xmlns="http://www.w3.org/2000/svg" xmlns:xlink="http://www.w3.org/1999/xlink" width="458" height="462.4" viewBox="0 0 458 462.4"><defs><style>.cls-1{fill:none;}.cls-2{isolation:isolate;}.cls-3{fill:#231f20;}.cls-4{clip-path:url(#clip-path);}.cls-5{opacity:0.1;fill:url(#linear-gradient);}.cls-6,.cls-7{opacity:0.2;}.cls-6{fill:url(#linear-gradient-2);}.cls-10,.cls-11,.cls-12,.cls-13,.cls-14,.cls-7,.cls-8,.cls-9{mix-blend-mode:multiply;}.cls-7{fill:url(#linear-gradient-3);}.cls-8{opacity:0.3;fill:url(#linear-gradient-4);}.cls-9{opacity:0.4;fill:url(#linear-gradient-5);}.cls-10,.cls-11{opacity:0.5;}.cls-10{fill:url(#linear-gradient-6);}.cls-11{fill:url(#linear-gradient-7);}.cls-12,.cls-13{opacity:0.7;}.cls-12{fill:url(#linear-gradient-8);}.cls-13{fill:url(#linear-gradient-9);}.cls-14{fill:url(#linear-gradient-10);}</style><clipPath id="clip-path"><path class="cls-1" d="M278.5,179.7a58.7,58.7,0,0,0-20-2.3c-5.2.4-12.9,1-16.4,5.4s.3,10,5.2,11.6,13.1.3,19.5.7c12.2.7,20.1,10.2,25.4,20.4,3.2,6.1,6,12.6,6.8,19.5s-.7,13.7-2.7,20.2-3.5,13.3-7.7,18.3-10.2,8-15.4,11.8A148.6,148.6,0,0,0,257,298.8a77.2,77.2,0,0,1-7.2,6.8,22.5,22.5,0,0,1-9.7,4c-12.7,2.4-27,3.7-37.7-5.2a42.2,42.2,0,0,1-11-15.7c-2.9-6.8-4-13.8-5.7-20.9s-5-11.5-8.4-17.1-5.2-10.9-2.1-16.6c6.8-12.6,23.1-10.6,34.2-5.9,6,2.5,11.5,4.9,18,2.7,3.3-1.2,6-2,9.5-1.6s6.1.9,9.2.6a11.5,11.5,0,0,0,10.7-9.8c.8-5.1-2.2-9.4-6.3-12.2s-9.5-4.4-11.6-9.2c-1.4-3.1-1.3-6.7-1.5-10s-.5-7.2-.7-10.9-.8-6.3-2.7-8.9a20,20,0,0,0-7-5.6c-5.6-3.1-12-4.6-18.3-5.3-13.2-1.5-27.4-.7-39.6,4.6-5.5,2.3-12.1,5.6-13.7,11.9a76.4,76.4,0,0,0-1.2,10.6c-.4,3.8-.7,7.5-1.1,11.2s-.2,6,2.7,7.5,5.4.9,8,.5l23.1-2.8c6-.8,13.2-.7,18.4-4.3s5.8-9,4.2-14.1-6.6-9-12-10.3-13.4-.2-19.8,1.8c-2.8.9-5.8,2.2-7.4,4.9a7.1,7.1,0,0,0-.4,7.4c1.6,2.6,4.6,3.4,7.3,4.1a57.4,57.4,0,0,0,10.1,1.6,56.8,56.8,0,0,0,19.6-2.4c2.7-.8.9-4.9-1.8-4.1a50.6,50.6,0,0,1-19.7,1.9,46.5,46.5,0,0,1-9-1.9c-1.2-.4-2.8-.9-2.9-2.4s1.5-3.1,2.9-3.8a32.6,32.6,0,0,1,8.7-2.7,28,28,0,0,1,10.4-.4c5.1,1.1,10.1,4.7,10.2,10.3s-5.9,8.2-11.1,8.9c-6.9,1-13.9,1.7-20.8,2.6l-9.8,1.2a22.5,22.5,0,0,1-4.4.4,3.2,3.2,0,0,1-1.7-.3c-.9-.6-.4-2.1-.3-3,.6-6.8.8-13.7,2-20.4s8.9-9.1,14.2-11a70.2,70.2,0,0,1,18.7-3.5c11.5-.6,25.8-.2,35.4,7.1,5.4,4,4.5,11.7,4.9,17.8s.1,12.3,4.1,17,7.3,5.1,11,7.6,6.2,7,3.1,11.3-10.8,2-15.8,1.9a20.8,20.8,0,0,0-8.5,1.7,13,13,0,0,1-9.1.2c-5.9-1.9-11.2-4.8-17.3-6s-12.1-1-17.7,1.3c-9.9,4.1-16.1,14.8-12.2,25.2,2.1,5.4,6.1,9.8,8.7,14.9s3.3,12.7,5,18.9c3.1,11.4,8.6,22.7,18.7,29.4s22.7,5.9,34.5,4.3c6.2-.9,11.9-2.5,16.8-6.7s9-8.9,13.9-12.9,10.1-7.7,15.3-11.3,9.2-6.8,11.8-12,4.6-11.7,6.2-17.6,2.7-12,2.2-18.2-2.7-12.8-5.4-18.6a67.7,67.7,0,0,0-8-13.5,38.2,38.2,0,0,0-11.2-10c-5-2.7-10.4-3.3-16-3.2-3.2.1-6.4.4-9.6.2s-5.9-.4-7.7-2.5c-3.6-4.5,9.8-6.1,11.9-6.3a49.1,49.1,0,0,1,19.4,1.9c2.7.8,4.4-3.3,1.6-4.2"/></clipPath><linearGradient id="linear-gradient" x1="78.25" y1="281.88" x2="499.78" y2="207.34" gradientUnits="userSpaceOnUse"><stop offset="0" stop-color="#e871ab"/><stop offset="1" stop-color="#fbae3b"/></linearGradient><linearGradient id="linear-gradient-2" x1="-268.43" y1="328.81" x2="83.04" y2="266.66" gradientTransform="matrix(1, 0.09, -0.09, 1, 387.3, -61.43)" xlink:href="#linear-gradient"/><linearGradient id="linear-gradient-3" x1="-417.17" y1="358.94" x2="-103.8" y2="303.52" gradientTransform="translate(558.2 -77.2) rotate(7.4)" xlink:href="#linear-gradient"/><linearGradient id="linear-gradient-4" x1="-409.59" y1="348.19" x2="-129.04" y2="298.58" gradientTransform="translate(558.2 -77.2) rotate(7.4)" xlink:href="#linear-gradient"/><linearGradient id="linear-gradient-5" x1="-403.37" y1="339.15" x2="-152.48" y2="294.79" gradientTransform="translate(558.2 -77.2) rotate(7.4)" xlink:href="#linear-gradient"/><linearGradient id="linear-gradient-6" x1="-396.07" y1="331.04" x2="-174.16" y2="291.8" gradientTransform="translate(558.2 -77.2) rotate(7.4)" xlink:href="#linear-gradient"/><linearGradient id="linear-gradient-7" x1="-379.04" y1="320.38" x2="-191.38" y2="287.19" gradientTransform="translate(558.2 -77.2) rotate(7.4)" xlink:href="#linear-gradient"/><linearGradient id="linear-gradient-8" x1="-832.53" y1="470.2" x2="-677.18" y2="442.72" gradientTransform="translate(1070.3 -82.3) rotate(14.2)" xlink:href="#linear-gradient"/><linearGradient id="linear-gradient-9" x1="-820.4" y1="464.75" x2="-685.88" y2="440.96" gradientTransform="translate(1070.3 -82.3) rotate(14.2)" xlink:href="#linear-gradient"/><linearGradient id="linear-gradient-10" x1="-1072.27" y1="572.68" x2="-966.38" y2="553.96" gradientTransform="translate(1369.6 -56.1) rotate(18.1)" xlink:href="#linear-gradient"/></defs><title>logo_final</title><g class="cls-2"><g id="Layer_1" data-name="Layer 1"><path class="cls-3" d="M143.3,93.6a7.2,7.2,0,0,1,2.7-9.8,6.7,6.7,0,0,1,9.5,2.8,7.1,7.1,0,0,1-2.6,9.8A6.9,6.9,0,0,1,143.3,93.6ZM154,87.7c-1.9-3.4-5.2-4.5-7.7-3.1s-3.3,4.4-1.5,7.8,5.2,4.5,7.7,3.2S155.8,91.2,154,87.7Z"/><path class="cls-3" d="M162.1,91.3l-5.4-12.6,3.4-1.5c3.2-1.5,5.5-.5,6.3,1.4s-.5,5.1-3.1,6.2l-1.7.7,2.2,5.1Zm-3.4-12.5,2.5,5.8,1.7-.6a3.3,3.3,0,1,0-2.5-6Z"/><path class="cls-3" d="M173.6,86.6l-4.7-12.9,1.7-.6L175.3,86Z"/><path class="cls-3" d="M187,82.3l-2.8-4.1-4.9,1.5v4.9l-1,.3.4-13.5v-.6l1.8-1.3,8.5,12.2Zm-7.3-10.6h-.1l-.3,6.9,4.4-1.3Z"/><path class="cls-3" d="M196.6,78a6.4,6.4,0,0,0,3.9.7c2.2-.4,3.1-1.8,2.8-3.1s-1.1-2.1-4.1-2.5-4.2-1.4-4.6-3.3.8-3.9,4-4.5a11,11,0,0,1,4.1.1l-.2,1.4a6.2,6.2,0,0,0-3.9-.6c-2,.3-2.8,1.6-2.6,2.9s1.4,2,4,2.4,4.4,1.4,4.8,3.3-1.1,4.2-4.3,4.8a8,8,0,0,1-4.1-.2Z"/><path class="cls-3" d="M207.6,71.2a7.2,7.2,0,0,1,6.5-7.9,6.9,6.9,0,0,1,7.6,6.5,7.2,7.2,0,0,1-6.4,7.8A6.8,6.8,0,0,1,207.6,71.2Zm12.2-1c-.4-4-3-6.3-5.8-6s-4.8,2.7-4.5,6.5,3,6.3,5.7,6.1S220.1,74.1,219.8,70.2Z"/><path class="cls-3" d="M237.7,76.9l-.2-12.1h-.2l-4.7,11.5h-1l-4-11.7h-.3l-.7,12.1h-1.1l.9-13.7h2.4l3.7,10.6h.2l4.1-10.4h2.5l.2,13.8Z"/><path class="cls-3" d="M249.8,78.2,252,64.6l3.7.5c3.5.5,4.9,2.7,4.6,4.6s-3.2,4.1-6,3.6l-1.8-.4-.9,5.6Zm3.9-12.4L252.6,72l1.8.5a3.2,3.2,0,0,0,3.9-2.7,3.1,3.1,0,0,0-2.8-3.7Z"/><path class="cls-3" d="M268.5,81.9l-.3-4.9-5-1.2L260.6,80l-1-.2,7.2-11.6a2.1,2.1,0,0,1-.6-2.3,2.4,2.4,0,0,1,4.7,1.1,2.6,2.6,0,0,1-1.7,1.8l1.2,13.6Zm-1-12.7h-.1L263.7,75l4.4,1.1Zm2.5-2.4a1.5,1.5,0,1,0-3-.7,1.5,1.5,0,0,0,1.1,1.9A1.5,1.5,0,0,0,270,66.8Z"/><path class="cls-3" d="M288.9,82.4l1.6.6-1.8,4.8a7.6,7.6,0,0,1-4.2-.3c-4-1.5-5.9-5.4-4.4-9.3a7.1,7.1,0,0,1,9.4-4.2,7.6,7.6,0,0,1,3.7,2.8l-1.1.9a5.3,5.3,0,0,0-3-2.9c-2.8-1.1-5.8.3-7.2,3.9s.2,6.9,3.1,8a7.8,7.8,0,0,0,2.1.4Z"/><path class="cls-3" d="M299,93.5l-.8-6.9-1.9-1L293.7,91l-1.6-.8L298,77.8l3.6,1.6c3.1,1.4,3.8,3.6,3,5.4a4.2,4.2,0,0,1-4.7,2.1l.9,7.5Zm.3-14.1-2.6,5.3,1.4.8c1.9.9,3.7.6,4.6-1.2s.2-3.2-1.8-4.1Z"/><path class="cls-3" d="M309.5,99.4l2.4-3.9L307.8,93l-4.5,2.6-1-.6L316,87.2l7.8,4.7-.7,1.1a10.4,10.4,0,0,0-3-2.2l-2.3-1.5-2.9,4.6,4.1,2.5-.5.8-4-2.5-2.9,4.8,2.3,1.5a18.7,18.7,0,0,0,3.4,1.6l-.6,1.1Zm6.7-11h-.1l-7.4,4.2,3.7,2.2Z"/><path class="cls-3" d="M320.2,103.9a6.3,6.3,0,0,0,2.2,3.4c1.8,1.4,3.4,1,4.2-.1s.7-2.2-1-4.7-1.9-4-.7-5.6,3.4-2.1,5.9-.2a9.4,9.4,0,0,1,2.7,3.1l-1.1.8a6.9,6.9,0,0,0-2.2-3.3c-1.6-1.1-3.1-.9-3.9.1s-.4,2.4,1,4.6,2,4.1.8,5.8-3.7,2.1-6.3.1a7.9,7.9,0,0,1-2.7-3.1Z"/><path class="cls-3" d="M334.9,118.3l1-8.2-2.3.2-3.4,3.9-1.4-1.2,9.1-10.4,1.4,1.2-4.8,5.4,10-.7,1.1.9-8,.6-1.1,9.8Z"/><path class="cls-3" d="M343.2,126.4l10.2-9.1,2.7,2.9c2.5,2.6,2.1,4.6.8,5.7a3.6,3.6,0,0,1-4.6,0h-.1c1.3,2,1.1,3.8-.1,4.8s-4.3,1.1-6.5-1.5Zm3.2,2.4c1.4,1.6,3.1,1.8,4.5.6s1-3-.5-4.8l-1.1-1.2-4.3,3.8Zm4.8-4.6c1.4,1.6,3.2,1.5,4.1.6s1.3-2.6-.3-4.4l-1-1.2-4.1,3.6Z"/><path class="cls-3" d="M351.5,136.2l11-8.3,5,6.6-1,.8a12.8,12.8,0,0,0-2-3.2l-1.6-2.3-4.4,3.3,2.9,3.8-.7.5-2.9-3.8-4.5,3.4,1.7,2.3a11.2,11.2,0,0,0,2.6,2.7l-1,.8Z"/><path class="cls-3" d="M360.3,148.4l10.8-6.9-.6-1a16.9,16.9,0,0,0-2.2-2.7l1.1-.7,6,9.3-1.1.7a13.1,13.1,0,0,0-1.6-3.1l-.6-1-10.8,6.9Z"/><path class="cls-3" d="M367,159.7l5.1-2.7,4.8-7.9,1,1.8-4.2,6.7h.1l7.9.4.5,1-9.2-.5-5.2,2.7Z"/><path class="cls-3" d="M371,167.5l12.6-5.4,1.5,3.3c1.9,4.1.4,8.1-3.2,9.6s-7.8.3-9.6-4.2Zm2.3,3.2c1.3,3.1,4.3,4.1,7.5,2.7s4.7-4.5,3.3-8l-.6-1.3-11,4.7Z"/><path class="cls-3" d="M376.5,181.1l13.1-4.3,2.6,8-1.2.3a22.4,22.4,0,0,0-.8-3.6l-.9-2.7-5.2,1.7,1.5,4.5-.8.3-1.5-4.5-5.4,1.8.9,2.6a14.3,14.3,0,0,0,1.5,3.4l-1.2.4Z"/><path class="cls-3" d="M381.9,200l4.9-5-.4-2.1-5.9,1.4-.4-1.7,13.4-3.3,1,3.8c.9,3.4-.4,5.2-2.3,5.7s-3.5-.4-4.6-2.2l-5.2,5.4Zm11.1-8.7-5.7,1.4a14.3,14.3,0,0,0,.3,1.6c.5,2,1.9,3.2,3.8,2.7s2.6-1.8,2.1-3.9Z"/><path class="cls-3" d="M382.6,212.3l2.5,1.1a7.3,7.3,0,0,1,13.3,5.9l2,.9v1l-2.5-1.1a6.8,6.8,0,0,1-5.5,3.7,7.3,7.3,0,0,1-8.1-6.3,7.2,7.2,0,0,1,.4-3.3l-2.1-.9Zm3.3,2.4a4.6,4.6,0,0,0-.6,2.8c.3,2.7,2.8,4.8,6.7,4.4a7.8,7.8,0,0,0,4.8-2.3Zm11.4,4.2a4.9,4.9,0,0,0,.6-2.9c-.3-2.8-2.8-4.8-6.7-4.4a7.3,7.3,0,0,0-4.8,2.4Z"/><path class="cls-3" d="M399.4,231.6v1.8l-9.3.2c-3.4.1-4.9-1.6-4.9-4a4.4,4.4,0,0,1,2.1-4l1.2,1-.4.2c-1.4.6-2.1,1.5-2,2.7s1.2,2.4,3.4,2.4Z"/><path class="cls-3" d="M385.7,238.1l13.7.6L399,247h-1.3a14.1,14.1,0,0,0,.6-3.7v-2.8l-5.4-.3-.2,4.8h-.9l.2-4.7-5.6-.3-.2,2.8a17.9,17.9,0,0,0,.2,3.7h-1.2Z"/><path class="cls-3" d="M391,256.7a7.1,7.1,0,0,1,6,8.2,7,7,0,0,1-8.3,5.7,7.2,7.2,0,0,1-5.9-8.3A6.8,6.8,0,0,1,391,256.7Zm-2.2,11.9c3.9.8,6.8-1.1,7.3-3.9s-1.3-5.4-5.1-6.1-6.9,1.2-7.4,3.9S385,267.9,388.8,268.6Z"/><path class="cls-3" d="M384.1,283.3l-.5,1.7-5-1.4a9,9,0,0,1,.1-4.3,7,7,0,0,1,8.9-5.1,7.2,7.2,0,0,1,4.9,9.1,7.6,7.6,0,0,1-2.5,3.9l-1-1a5.3,5.3,0,0,0,2.7-3.3c.8-2.8-.7-5.7-4.4-6.8s-6.9.7-7.8,3.6a5.7,5.7,0,0,0-.2,2.2Z"/><path class="cls-3" d="M371.5,299.4l4.9.5,2-4.7-3.7-3.3.4-.9,10.1,8.9.5.3v2.2l-14.9-1.2Zm12.7,1.1h.1l-5.2-4.6-1.8,4.1Z"/><path class="cls-3" d="M365.3,311.4l13.9-1h0l-10.3-5.5.5-.9,12,6.4-.7,1.8-13.9,1h0l10.2,5.5-.5.9-12-6.4Z"/><path class="cls-3" d="M363.9,317.7a6.6,6.6,0,0,0-3.2,2.4c-1.3,1.9-.8,3.4.4,4.2s2.2.6,4.6-1.3,3.9-2.1,5.5-1.1,2.3,3.3.6,6a11.3,11.3,0,0,1-2.9,2.9l-.9-1.1a5.9,5.9,0,0,0,3.1-2.4c1.1-1.7.7-3.2-.3-3.9s-2.4-.3-4.5,1.3-4,2.3-5.7,1.2-2.3-3.7-.6-6.4a10.3,10.3,0,0,1,3-2.9Z"/><path class="cls-3" d="M355.3,326.9l11.1,8.2-1.1,1.4-11-8.2Z"/><path class="cls-3" d="M350.4,342.5l-1.1,1.4-3.9-3.3a7.4,7.4,0,0,1,1.8-3.9,6.9,6.9,0,0,1,10.2-1,7.2,7.2,0,0,1,.8,10.3,7.3,7.3,0,0,1-3.9,2.5l-.5-1.3a5.4,5.4,0,0,0,3.8-1.9c1.9-2.3,1.6-5.5-1.3-8s-6.6-2.2-8.6.1a7.2,7.2,0,0,0-1.1,1.9Z"/><path class="cls-3" d="M339.5,345.4l9,9.1.9-.8a15.4,15.4,0,0,0,2.2-2.7l.9.9-7.9,7.8-.9-.9a14.6,14.6,0,0,0,2.8-2.2l.8-.8-9.1-9.1Z"/><path class="cls-3" d="M322.1,355.6l7.7,18.3-.7.6-7.7-18.4Z"/><path class="cls-3" d="M306.9,370.5l6.5,12.1-7.3,3.9-.6-1.1A15.5,15.5,0,0,0,309,384l2.4-1.4-2.5-4.7-4.2,2.2-.5-.8,4.2-2.2-2.7-5-2.4,1.4a11.5,11.5,0,0,0-3.1,2.1l-.6-1.1Z"/><path class="cls-3" d="M293.4,377.3l5.3,11.8,1-.5a14.1,14.1,0,0,0,3.1-1.8l.5,1.2-10.1,4.5-.6-1.2a11.3,11.3,0,0,0,3.4-1l1-.5L291.8,378Z"/><path class="cls-3" d="M278.8,383.1l3,3.9,4.8-1.7v-5l.9-.3.4,13.5.2.5-1.7,1.4L277,383.8Zm7.9,10.1h.1l-.2-7-4.2,1.6Z"/><path class="cls-3" d="M274.1,384.7l3.6,13.2L274,399c-3.5,1.1-5.1-.2-5.6-1.7a3.8,3.8,0,0,1,2.1-4.2h-.1c-2.3.3-3.8-.7-4.2-2.3s.9-4.3,4.2-5.1Zm-3.6,1.8c-2,.6-3,2-2.5,3.7s2.2,2.4,4.5,1.8l1.6-.5-1.5-5.5Zm2,6.4a2.8,2.8,0,0,0-2.4,3.4c.5,1.6,1.8,2.3,4.2,1.7l1.5-.4-1.5-5.2Z"/><path class="cls-3" d="M261.6,387.9l2.6,13.5-1.7.3-2.4-12.6-2.7.5a14.1,14.1,0,0,0-3.6,1.1l-.3-1.3Z"/><path class="cls-3" d="M250.3,389.9l1.6,13.7-8.3.9v-1.2a16.1,16.1,0,0,0,3.7-.1l2.8-.3-.6-5.4-4.7.5v-.8l4.7-.6-.7-5.6-2.8.3a15.1,15.1,0,0,0-3.6.8l-.2-1.2Z"/><path class="cls-3" d="M230.8,391.4l3.9,5.8h2.1l-.2-6h1.8l.5,13.8-3.9.2c-3.5.2-5.1-1.4-5.1-3.3s1.1-3.4,3.1-4.1l-4.3-6.2Zm6.2,12.7-.2-5.9h-1.6c-2.1.1-3.5,1.2-3.5,3.2s1.3,2.9,3.5,2.8Z"/><path class="cls-3" d="M225.5,391.4l-.6,13.8-8.3-.4v-1.2a19.2,19.2,0,0,0,3.7.5h2.8l.2-5.4-4.8-.2v-.9l4.7.2.3-5.6h-2.8a13.6,13.6,0,0,0-3.8.2v-1.3Z"/><path class="cls-3" d="M210.5,390.4l-1.6,12.8h1.2a14.2,14.2,0,0,0,3.5.1l-.2,1.2-11-1.3.2-1.3a12.1,12.1,0,0,0,3.4.8l1.1.2,1.6-12.8Z"/><path class="cls-3" d="M196.1,388.1l-.2,1.3c-4.1,1.6-6.8,2.8-7.2,4.7a2.1,2.1,0,0,0,1.8,2.6,3.9,3.9,0,0,0,3.3-.8l.4.7a5.3,5.3,0,0,1-4.7,1.2,3.1,3.1,0,0,1-2.6-3.7c.6-2.4,3-3.2,7.1-4.8l-6-1.4.4-1.6Z"/><path class="cls-3" d="M184.2,390.5c-1,3.2-3.6,5-6.5,4.1s-3.9-3.6-2.9-6.7,3.6-4.9,6.5-4S185.2,387.4,184.2,390.5Zm-7.6-2.4c-1,3.2,0,5.2,1.6,5.7s3.3-.7,4.2-3.5.1-5.1-1.5-5.6S177.5,385.3,176.6,388.1Z"/><path class="cls-3" d="M173.8,381.7l-.4,1.3c-4.2.9-7.1,1.7-7.8,3.5s.1,2.3,1.4,2.9a4.4,4.4,0,0,0,3.4-.3l.3.7a5.1,5.1,0,0,1-4.8.5,3.2,3.2,0,0,1-2.1-4.1c.9-2.2,3.5-2.7,7.7-3.7l-5.7-2.2.6-1.5Z"/><path class="cls-3" d="M161.6,382.3c-1.4,3-4.2,4.4-7,3s-3.3-4.1-1.8-7,4.2-4.3,6.9-3S163,379.4,161.6,382.3Zm-7.1-3.5c-1.5,3-.8,5.1.7,5.8s3.4-.1,4.7-2.7.8-5.2-.7-5.9S155.7,376.2,154.5,378.8Z"/><path class="cls-3" d="M144.7,362.7,129.9,376l-.8-.5,14.8-13.3Z"/><path class="cls-3" d="M121.5,358.8a7.3,7.3,0,0,1-10.2.5,6.9,6.9,0,0,1-.3-10,7.3,7.3,0,0,1,10.2-.5A6.9,6.9,0,0,1,121.5,358.8Zm-8.9-8.3c-2.7,2.9-2.7,6.3-.6,8.2s5.2,1.8,7.9-1,2.7-6.4.6-8.3S115.3,347.6,112.6,350.5Z"/><path class="cls-3" d="M113.4,341.6l-10.2,9.2-2.6-2.8c-2.4-2.6-2.1-5.1-.6-6.4s5-1.2,6.9,1l1.2,1.4,4.1-3.7Zm-10.8,7.2,4.8-4.2a11,11,0,0,0-1.1-1.4,3.2,3.2,0,0,0-4.8-.4,3,3,0,0,0-.1,4.6Z"/><path class="cls-3" d="M105.4,332.2l-10.8,8.5-1.2-1.4,10.8-8.5Z"/><path class="cls-3" d="M97,320.9l-2.9,3.9L97,329l4.7-1.4.6.8-12.9,3.8-.5.4-1.8-1.4,8.8-11.9Zm-7.7,10.2h.1l6.7-2-2.6-3.6Z"/><path class="cls-3" d="M90.4,309.7l-9.9,10.8-.9-1.7,8.7-9.4h-.1l-12.6,2.1-.5-1,14.5-2.3Z"/><path class="cls-3" d="M86,301l-12.5,5.8-.8-1.6,12.5-5.8Z"/><path class="cls-3" d="M80.4,287.4,72,298.5h.1L83,294.4l.4,1-12.8,4.9-.9-1.8,8.4-11.1h0l-11,4.2-.3-1,12.7-4.9Z"/><path class="cls-3" d="M72.9,251.9c1.1,10.1-4.6,18.3-15.8,19.6s-18.9-5.4-20-15.5,4.5-18.2,15.7-19.5S71.7,241.8,72.9,251.9Zm-30.2,3.6c.7,6.5,6.1,10.2,13.4,9.3s12-5.7,11.2-12.3-6.2-10.2-13.5-9.4S41.9,248.9,42.7,255.5Z"/><path class="cls-3" d="M61.4,214.4l-.4,3.8,10.6,1.4-.8,6.6L36.7,222,38,210.9c1.2-9.4,6.5-13.4,13.2-12.6S62.5,205.2,61.4,214.4Zm-17.9-2.3c0,.4-.5,4-.5,4l12.5,1.6.4-4.3c.5-5.1-1.3-7.9-5.3-8.4S44.2,206.8,43.5,212.1Z"/><path class="cls-3" d="M76.4,193.3l-33-9.7,1.8-6.3,33,9.6Z"/><path class="cls-3" d="M94,150.6l-2.9,6.1-8.6-1-6.1,12.5,6.1,6-2.9,6.1L54.1,154l3.6-7.3Zm-32.9,2.3,11.1,11.2,4.5-9.3Z"/><g class="cls-4"><path class="cls-5" d="M503.2,257.9c0,91.1-99.9,212-165.1,165S92.2,445.2,74.9,257.9V226.5c0-91.1,102.4-199.7,165.1-165,154.3,158.4,235.9,49.5,263.2,165Z"/><path class="cls-6" d="M445.2,253.8c-6.8,75.7-98.8,168.7-149.4,124.7s-205.9.2-206.3-156.7l2.4-26c6.8-75.7,99.9-158.2,149.3-124.7,116.3,143.1,192.3,58.7,206.3,156.7Z"/><path class="cls-7" d="M413.9,248c-8.7,67.2-93.9,146.8-137.5,105.9S93,346.8,98.2,207l3-23.1c8.7-67.2,94.5-137.4,137.4-105.8,98.6,131.5,169.3,59,178.3,146.8Z"/><path class="cls-8" d="M389.8,235.9c-7.9,60.2-84.1,131.4-123.1,94.8s-164.2-6.3-159.6-131.5l2.7-20.6c7.8-60.2,84.6-123.1,123-94.8,88.3,117.8,151.6,52.9,159.6,131.4Z"/><path class="cls-9" d="M367.2,225.6c-7,53.8-75.2,117.5-110,84.8s-146.9-5.7-142.8-117.6l2.4-18.5c7-53.8,75.7-110,110.1-84.8,78.9,105.4,135.5,47.3,142.7,117.6Z"/><path class="cls-10" d="M346.3,216.4c-6.2,47.6-66.5,103.9-97.3,75s-129.9-5.1-126.3-104l2.2-16.4c6.1-47.6,66.9-97.3,97.3-75,69.8,93.2,119.9,41.8,126.2,104Z"/><path class="cls-11" d="M330.1,205.5c-5.2,40.2-56.2,87.9-82.3,63.4s-109.9-4.3-106.8-88l1.8-13.8c5.2-40.2,56.6-82.3,82.3-63.4,59.1,78.8,101.4,35.4,106.8,87.9Z"/><path class="cls-12" d="M302.2,199.8c-8.3,32.6-54.8,66.8-73.9,44.1s-89.9-14.2-79.2-82.7l2.8-11.2c8.3-32.6,54.6-62.1,73.9-44.1,40.9,70.5,79.9,39,79.2,82.7Z"/><path class="cls-13" d="M294.6,193.5c-7.1,28.2-47.4,57.8-63.9,38.2s-77.9-12.3-68.6-71.6l2.4-9.7c7.2-28.2,47.3-53.8,64-38.2,35.4,61.1,69.1,33.7,68.5,71.6Z"/><path class="cls-14" d="M275.7,182c-7.2,21.8-40.5,42.9-52.3,26.5s-60.5-13.9-50-59.9l2.5-7.5c7.1-21.8,40-39.7,52.3-26.5,24.4,49.9,52.4,30.2,49.9,60Z"/></g></g></g></svg>
