<svg xmlns="http://www.w3.org/2000/svg" xmlns:xlink="http://www.w3.org/1999/xlink" width="460" height="460" viewBox="0 0 460 460"><defs><style>.cls-1{fill:none;}.cls-2{isolation:isolate;}.cls-3{clip-path:url(#clip-path);}.cls-15,.cls-4{opacity:0.1;}.cls-4{fill:url(#linear-gradient);}.cls-5,.cls-6{opacity:0.2;}.cls-5{fill:url(#linear-gradient-2);}.cls-10,.cls-11,.cls-12,.cls-13,.cls-6,.cls-7,.cls-8,.cls-9{mix-blend-mode:multiply;}.cls-6{fill:url(#linear-gradient-3);}.cls-7{opacity:0.3;fill:url(#linear-gradient-4);}.cls-8{opacity:0.4;fill:url(#linear-gradient-5);}.cls-10,.cls-9{opacity:0.5;}.cls-9{fill:url(#linear-gradient-6);}.cls-10{fill:url(#linear-gradient-7);}.cls-11,.cls-12{opacity:0.7;}.cls-11{fill:url(#linear-gradient-8);}.cls-12{fill:url(#linear-gradient-9);}.cls-13{fill:url(#linear-gradient-10);}.cls-14{clip-path:url(#clip-path-2);}.cls-15{fill:url(#linear-gradient-11);}</style><clipPath id="clip-path"><path class="cls-1" d="M279.5,178.5a58.7,58.7,0,0,0-20-2.3c-5.2.4-12.9,1-16.4,5.4s.3,10,5.2,11.6,13.1.3,19.5.7c12.2.6,20.2,10.2,25.4,20.4,3.2,6.1,6,12.6,6.8,19.5s-.7,13.6-2.7,20.1-3.4,13.4-7.7,18.4-10.2,8-15.4,11.8a138.7,138.7,0,0,0-16.1,13.5,93.3,93.3,0,0,1-7.3,6.8,22.1,22.1,0,0,1-9.6,4c-12.8,2.4-27.1,3.7-37.8-5.2a42.2,42.2,0,0,1-11-15.7c-2.8-6.8-4-13.9-5.7-21s-4.9-11.4-8.4-17-5.1-10.9-2.1-16.6c6.8-12.6,23.1-10.6,34.3-6,6,2.6,11.4,5,17.9,2.7,3.3-1.1,6-1.9,9.5-1.5s6.1.9,9.2.6a11.5,11.5,0,0,0,10.7-9.8c.8-5.1-2.2-9.4-6.3-12.2s-9.5-4.4-11.6-9.2c-1.3-3.1-1.3-6.7-1.5-10s-.5-7.2-.7-10.9-.8-6.3-2.7-9a20.9,20.9,0,0,0-7-5.5c-5.6-3.1-12-4.6-18.3-5.3-13.1-1.5-27.4-.7-39.6,4.6-5.5,2.3-12.1,5.6-13.7,11.9-.8,3.5-.8,7.1-1.2,10.6s-.7,7.5-1.1,11.2-.2,6,2.7,7.5,5.4.9,8,.5l23.1-2.8c6-.8,13.2-.8,18.4-4.3s5.8-9,4.2-14.1-6.6-9-11.9-10.3-13.5-.2-19.9,1.8c-2.8.9-5.8,2.2-7.4,4.9a7.1,7.1,0,0,0-.4,7.4c1.6,2.5,4.6,3.4,7.3,4.1a57.4,57.4,0,0,0,10.1,1.6,56.5,56.5,0,0,0,19.6-2.4c2.8-.8.9-4.9-1.8-4.1a50.6,50.6,0,0,1-19.7,1.9,46.5,46.5,0,0,1-9-1.9c-1.2-.4-2.8-.9-2.9-2.4s1.5-3.1,2.9-3.8a33.7,33.7,0,0,1,8.7-2.7,26,26,0,0,1,10.4-.4c5.1,1.1,10.1,4.7,10.2,10.3s-5.9,8.2-11.1,8.9c-6.9,1-13.9,1.7-20.8,2.6l-9.8,1.2a21.2,21.2,0,0,1-4.4.4,3.4,3.4,0,0,1-1.7-.3c-.8-.6-.4-2.1-.3-3.1.6-6.7.9-13.6,2-20.3s9-9.1,14.2-11a66.5,66.5,0,0,1,18.8-3.5c11.5-.6,25.7-.2,35.3,7.1,5.4,4,4.5,11.7,4.9,17.8s.2,12.3,4.1,17,7.3,5.1,11,7.6,6.3,7,3.1,11.3-10.8,2-15.8,1.9a20.8,20.8,0,0,0-8.5,1.7,13,13,0,0,1-9.1.2c-5.9-1.9-11.2-4.8-17.3-6s-12.1-1-17.7,1.3c-9.9,4.1-16.1,14.7-12.2,25.2,2.1,5.4,6.1,9.8,8.7,14.9s3.3,12.7,5,18.9c3.1,11.4,8.6,22.7,18.7,29.4s22.7,5.9,34.5,4.2c6.2-.8,12-2.4,16.8-6.6s9.1-8.9,14-12.9a172.6,172.6,0,0,1,15.3-11.3c4.7-3.2,9.1-6.8,11.8-12s4.5-11.7,6.1-17.6a56.8,56.8,0,0,0,2.3-18.3c-.5-6.4-2.8-12.7-5.5-18.5a67.7,67.7,0,0,0-8-13.5,36.9,36.9,0,0,0-11.2-10c-5-2.7-10.4-3.3-16-3.2-3.2.1-6.4.3-9.6.2s-5.9-.4-7.7-2.5c-3.6-4.5,9.9-6.1,12-6.3a48.8,48.8,0,0,1,19.3,1.9c2.7.8,4.4-3.3,1.6-4.2"/></clipPath><linearGradient id="linear-gradient" x1="79.27" y1="280.67" x2="500.79" y2="206.13" gradientUnits="userSpaceOnUse"><stop offset="0" stop-color="#e871ab"/><stop offset="1" stop-color="#fbae3b"/></linearGradient><linearGradient id="linear-gradient-2" x1="-239.51" y1="428.94" x2="111.96" y2="366.79" gradientTransform="matrix(1, 0.09, -0.09, 1, 368.48, -164.96)" xlink:href="#linear-gradient"/><linearGradient id="linear-gradient-3" x1="-373.18" y1="502.64" x2="-59.81" y2="447.22" gradientTransform="translate(534.1 -226.6) rotate(7.4)" xlink:href="#linear-gradient"/><linearGradient id="linear-gradient-4" x1="-365.6" y1="491.89" x2="-85.06" y2="442.28" gradientTransform="translate(534.1 -226.6) rotate(7.4)" xlink:href="#linear-gradient"/><linearGradient id="linear-gradient-5" x1="-359.39" y1="482.85" x2="-108.5" y2="438.49" gradientTransform="translate(534.1 -226.6) rotate(7.4)" xlink:href="#linear-gradient"/><linearGradient id="linear-gradient-6" x1="-352.09" y1="474.74" x2="-130.17" y2="435.5" gradientTransform="translate(534.1 -226.6) rotate(7.4)" xlink:href="#linear-gradient"/><linearGradient id="linear-gradient-7" x1="-335.06" y1="464.08" x2="-147.39" y2="430.89" gradientTransform="translate(534.1 -226.6) rotate(7.4)" xlink:href="#linear-gradient"/><linearGradient id="linear-gradient-8" x1="-733.33" y1="740.55" x2="-577.97" y2="713.08" gradientTransform="translate(1041.3 -369.9) rotate(14.2)" xlink:href="#linear-gradient"/><linearGradient id="linear-gradient-9" x1="-721.19" y1="735.1" x2="-586.67" y2="711.32" gradientTransform="translate(1041.3 -369.9) rotate(14.2)" xlink:href="#linear-gradient"/><linearGradient id="linear-gradient-10" x1="-933.67" y1="914.08" x2="-827.78" y2="895.36" gradientTransform="translate(1345.1 -424.9) rotate(18.1)" xlink:href="#linear-gradient"/><clipPath id="clip-path-2"><path class="cls-1" d="M470.3-241.2a58.7,58.7,0,0,0-20-2.3c-5.2.4-12.9,1-16.4,5.4s.4,10,5.2,11.6,13.1.3,19.5.7c12.3.7,20.2,10.3,25.4,20.4,3.2,6.1,6,12.6,6.8,19.5s-.7,13.7-2.6,20.2-3.5,13.3-7.8,18.3-10.2,8-15.4,11.8a157.7,157.7,0,0,0-16.1,13.5,78.3,78.3,0,0,1-7.3,6.8,22.1,22.1,0,0,1-9.6,4c-12.8,2.4-27.1,3.7-37.7-5.2a41.3,41.3,0,0,1-11.1-15.7c-2.8-6.8-4-13.8-5.6-20.9s-5-11.5-8.5-17.1-5.1-10.9-2.1-16.6c6.8-12.6,23.1-10.6,34.3-5.9,6,2.5,11.4,4.9,17.9,2.7a20.7,20.7,0,0,1,9.5-1.6c3.1.3,6.1.9,9.2.6a11.5,11.5,0,0,0,10.7-9.8c.8-5.1-2.2-9.4-6.3-12.2s-9.5-4.4-11.6-9.2c-1.3-3.1-1.3-6.7-1.5-10s-.5-7.2-.7-10.8-.8-6.4-2.7-9a18.3,18.3,0,0,0-7-5.6c-5.6-3.1-12-4.6-18.3-5.3-13.1-1.5-27.4-.7-39.6,4.6-5.5,2.3-12.1,5.6-13.6,11.9-.9,3.5-.9,7.1-1.3,10.6s-.7,7.5-1.1,11.2-.2,6,2.7,7.6,5.4.8,8,.4l23.1-2.8c6-.8,13.2-.7,18.4-4.3s5.8-9,4.2-14.1-6.6-8.9-11.9-10.3-13.5-.2-19.8,1.8c-2.9.9-5.9,2.2-7.5,4.9a7.1,7.1,0,0,0-.4,7.4c1.6,2.6,4.6,3.4,7.3,4.1a57.4,57.4,0,0,0,10.1,1.6,56.5,56.5,0,0,0,19.6-2.4c2.8-.8.9-4.9-1.8-4.1a48.7,48.7,0,0,1-19.7,1.9,46.5,46.5,0,0,1-9-1.9c-1.2-.4-2.8-.9-2.9-2.4s1.5-3.1,2.9-3.8a33.7,33.7,0,0,1,8.7-2.7,28,28,0,0,1,10.4-.4c5.1,1.1,10.1,4.7,10.3,10.3s-6,8.2-11.1,8.9c-7,1-14,1.7-20.9,2.6l-9.8,1.2a31.2,31.2,0,0,1-4.4.5,5.3,5.3,0,0,1-1.7-.4c-.8-.6-.4-2.1-.3-3,.6-6.8.9-13.7,2-20.4s9-9.1,14.2-11a70.2,70.2,0,0,1,18.8-3.5c11.5-.6,25.7-.1,35.3,7.1,5.4,4,4.5,11.7,4.9,17.8s.2,12.3,4.1,17,7.3,5.1,11,7.6,6.3,7,3.1,11.3-10.8,2-15.8,1.9a20.8,20.8,0,0,0-8.5,1.7,13,13,0,0,1-9.1.2c-5.9-1.9-11.2-4.8-17.3-6s-12.1-1-17.6,1.3c-10,4.1-16.2,14.8-12.3,25.2,2.1,5.4,6.1,9.8,8.7,15s3.3,12.6,5,18.8c3.1,11.4,8.6,22.7,18.7,29.4s22.7,5.9,34.5,4.3c6.2-.9,12-2.5,16.8-6.7s9.1-8.9,14-12.9a188.6,188.6,0,0,1,15.3-11.3c4.7-3.2,9.1-6.8,11.8-12s4.5-11.7,6.1-17.6a55.9,55.9,0,0,0,2.3-18.2c-.5-6.5-2.8-12.8-5.5-18.6a70.6,70.6,0,0,0-8-13.5,35.9,35.9,0,0,0-11.2-10c-5-2.7-10.4-3.3-16-3.2-3.2.1-6.4.4-9.6.2s-5.9-.3-7.7-2.5c-3.6-4.5,9.9-6.1,12-6.3a50.3,50.3,0,0,1,19.3,1.9c2.7.8,4.4-3.3,1.6-4.2"/></clipPath><linearGradient id="linear-gradient-11" x1="270.08" y1="-139.01" x2="691.6" y2="-213.55" xlink:href="#linear-gradient"/></defs><title>logo_head</title><g class="cls-2"><g id="Layer_1" data-name="Layer 1"><g class="cls-3"><path class="cls-4" d="M504.2,256.6c0,91.2-99.9,212.1-165.1,165.1S93.3,444,75.9,256.6V225.3c0-91.1,102.4-199.7,165.1-165,154.3,158.4,236,49.5,263.2,165Z"/><path class="cls-5" d="M446.2,252.6c-6.8,75.7-98.8,168.7-149.4,124.7s-205.9.2-206.3-156.7l2.4-26c6.8-75.7,99.9-158.2,149.4-124.8,116.3,143.1,192.2,58.8,206.2,156.8Z"/><path class="cls-6" d="M414.9,246.8C406.2,314,321,393.6,277.5,352.7S94,345.6,99.2,205.8l3-23.1c8.7-67.2,94.5-137.4,137.5-105.9,98.6,131.6,169.2,59.1,178.2,146.9Z"/><path class="cls-7" d="M390.8,234.7c-7.8,60.2-84.1,131.4-123.1,94.8S103.5,323.2,108.1,198l2.7-20.6c7.8-60.2,84.6-123.1,123.1-94.8C322.1,200.3,385.4,135.5,393.5,214Z"/><path class="cls-8" d="M368.2,224.4c-6.9,53.8-75.2,117.5-110,84.8s-146.9-5.7-142.7-117.6l2.4-18.5c6.9-53.8,75.7-110.1,110-84.8,79,105.3,135.5,47.3,142.7,117.6Z"/><path class="cls-9" d="M347.3,215.2c-6.1,47.5-66.5,103.9-97.3,74.9s-129.9-5-126.2-104l2.1-16.3c6.2-47.6,66.9-97.3,97.3-75,69.8,93.2,119.9,41.8,126.3,104Z"/><path class="cls-10" d="M331.1,204.3c-5.2,40.2-56.2,87.9-82.3,63.4s-109.9-4.3-106.8-88l1.8-13.8c5.2-40.2,56.6-82.3,82.3-63.4,59.1,78.8,101.4,35.4,106.8,87.9Z"/><path class="cls-11" d="M303.2,198.6c-8.2,32.6-54.8,66.8-73.9,44.1s-89.9-14.2-79.2-82.7l2.9-11.2c8.2-32.6,54.5-62.1,73.8-44.1,40.9,70.5,79.9,39,79.2,82.7Z"/><path class="cls-12" d="M295.6,192.3c-7.1,28.2-47.4,57.8-63.9,38.2s-77.8-12.3-68.6-71.6l2.5-9.7c7.1-28.2,47.2-53.8,63.9-38.2,35.4,61,69.2,33.7,68.6,71.6Z"/><path class="cls-13" d="M276.7,180.8c-7.1,21.8-40.4,42.9-52.3,26.5s-60.5-13.9-50-59.9l2.5-7.5c7.1-21.8,40-39.7,52.3-26.5,24.4,49.9,52.5,30.2,49.9,59.9Z"/></g><g class="cls-14"><path class="cls-15" d="M695-163C695-71.9,595.1,49,530,2S284.1,24.3,266.7-163v-31.4c0-91.1,102.4-199.7,165.1-165,154.3,158.4,236,49.5,263.2,165Z"/></g></g></g></svg>
