<svg id="Layer_1" data-name="Layer 1" xmlns="http://www.w3.org/2000/svg" xmlns:xlink="http://www.w3.org/1999/xlink" width="460" height="460" viewBox="0 0 460 460"><defs><style>.cls-1{fill:none;}.cls-2{fill:#231f20;}.cls-3{clip-path:url(#clip-path);}.cls-4{opacity:0.1;fill:url(#linear-gradient);}</style><clipPath id="clip-path"><path class="cls-1" d="M-69.3-241.2a59.6,59.6,0,0,0-20.1-2.3c-5.1.4-12.9,1-16.4,5.4s.4,10,5.3,11.6,13.1.3,19.5.7c12.2.7,20.1,10.3,25.4,20.4,3.1,6.1,6,12.6,6.7,19.5s-.7,13.7-2.6,20.2-3.5,13.3-7.7,18.3-10.3,8-15.4,11.8a148.6,148.6,0,0,0-16.2,13.5,92,92,0,0,1-7.2,6.8,23,23,0,0,1-9.7,4c-12.8,2.4-27.1,3.7-37.7-5.2a41.1,41.1,0,0,1-11-15.7c-2.9-6.8-4.1-13.8-5.7-20.9s-5-11.5-8.5-17.1-5.1-10.9-2-16.6c6.8-12.6,23.1-10.6,34.2-5.9,6,2.5,11.5,4.9,18,2.7a20.1,20.1,0,0,1,9.4-1.6c3.1.3,6.1.9,9.2.6A11.6,11.6,0,0,0-91-200.8c.8-5.1-2.2-9.4-6.3-12.2s-9.6-4.4-11.6-9.2c-1.4-3.1-1.4-6.7-1.6-10s-.4-7.2-.7-10.8-.8-6.4-2.7-9a18.8,18.8,0,0,0-6.9-5.6,49.4,49.4,0,0,0-18.4-5.3c-13.1-1.5-27.3-.7-39.6,4.6-5.5,2.3-12.1,5.6-13.6,11.9a76.4,76.4,0,0,0-1.2,10.6c-.4,3.8-.8,7.5-1.1,11.2s-.2,6,2.7,7.6,5.3.8,8,.4l23-2.8c6.1-.8,13.2-.7,18.4-4.3s5.9-9,4.3-14.1-6.7-8.9-12-10.3-13.4-.2-19.8,1.8c-2.9.9-5.8,2.2-7.5,4.9a7.1,7.1,0,0,0-.3,7.4c1.5,2.6,4.5,3.4,7.3,4.1a56.3,56.3,0,0,0,10,1.6,57,57,0,0,0,19.7-2.4c2.7-.8.9-4.9-1.9-4.1a48.1,48.1,0,0,1-19.6,1.9,46.5,46.5,0,0,1-9-1.9c-1.3-.4-2.8-.9-3-2.4s1.6-3.1,2.9-3.8a33.7,33.7,0,0,1,8.7-2.7,28.1,28.1,0,0,1,10.4-.4c5.1,1.1,10.1,4.7,10.3,10.3s-5.9,8.2-11.1,8.9c-6.9,1-13.9,1.7-20.9,2.6l-9.7,1.2a34.4,34.4,0,0,1-4.5.5,4.7,4.7,0,0,1-1.6-.4c-.9-.6-.5-2.1-.4-3,.7-6.8.9-13.7,2-20.4s9-9.1,14.3-11a70.2,70.2,0,0,1,18.7-3.5c11.5-.6,25.8-.1,35.4,7.1,5.4,4,4.4,11.7,4.8,17.8s.2,12.3,4.1,17,7.3,5.1,11,7.6,6.3,7,3.2,11.3-10.9,2-15.8,1.9a21.3,21.3,0,0,0-8.6,1.7,13,13,0,0,1-9.1.2c-5.8-1.9-11.2-4.8-17.3-6s-12.1-1-17.6,1.3c-9.9,4.1-16.1,14.8-12.2,25.2,2,5.4,6.1,9.8,8.6,15s3.3,12.6,5,18.8c3.1,11.4,8.7,22.7,18.8,29.4s22.7,5.9,34.4,4.3c6.2-.9,12-2.5,16.8-6.7s9.1-8.9,14-12.9,10.1-7.7,15.3-11.3,9.1-6.8,11.8-12,4.5-11.7,6.1-17.6A53.3,53.3,0,0,0-44.3-185c-.4-6.5-2.7-12.8-5.5-18.6a70.2,70.2,0,0,0-7.9-13.5,38.2,38.2,0,0,0-11.2-10c-5-2.7-10.5-3.3-16.1-3.2-3.2.1-6.3.4-9.5.2s-6-.3-7.7-2.5c-3.7-4.5,9.8-6.1,11.9-6.3A50.3,50.3,0,0,1-71-237c2.8.8,4.4-3.3,1.7-4.2"/></clipPath><linearGradient id="linear-gradient" x1="-269.58" y1="-139.01" x2="151.94" y2="-213.55" gradientUnits="userSpaceOnUse"><stop offset="0" stop-color="#e871ab"/><stop offset="1" stop-color="#fbae3b"/></linearGradient></defs><title>logotext</title><path class="cls-2" d="M144.3,92.3a7.2,7.2,0,0,1,2.7-9.8,6.9,6.9,0,0,1,9.6,2.9,7.2,7.2,0,0,1-2.7,9.8A6.8,6.8,0,0,1,144.3,92.3ZM155,86.5c-1.9-3.5-5.2-4.5-7.7-3.1s-3.3,4.4-1.5,7.8,5.3,4.5,7.7,3.2S156.9,90,155,86.5Z"/><path class="cls-2" d="M163.1,90.1l-5.4-12.6,3.4-1.6c3.2-1.4,5.5-.4,6.3,1.4s-.4,5.2-3.1,6.3l-1.7.7,2.2,5.1Zm-3.4-12.5,2.5,5.8,1.7-.6a3.3,3.3,0,1,0-2.5-6Z"/><path class="cls-2" d="M174.6,85.4l-4.7-12.9,1.7-.7,4.7,13Z"/><path class="cls-2" d="M188,81.1,185.2,77l-4.9,1.5v4.9l-1,.3.5-13.5-.2-.6,1.8-1.3,8.5,12.2Zm-7.3-10.6h-.1l-.2,6.9,4.3-1.3Z"/><path class="cls-2" d="M197.6,76.8a6.4,6.4,0,0,0,3.9.7c2.3-.4,3.1-1.8,2.8-3.2s-1.1-2-4.1-2.4-4.2-1.4-4.6-3.3.9-3.9,4-4.5a9.2,9.2,0,0,1,4.1.1l-.2,1.4a5.6,5.6,0,0,0-3.9-.6c-1.9.3-2.8,1.6-2.6,2.8s1.5,2,4.1,2.5,4.3,1.3,4.7,3.3-1.1,4.2-4.2,4.8a9.7,9.7,0,0,1-4.2-.2Z"/><path class="cls-2" d="M208.7,70a7.1,7.1,0,0,1,6.4-7.9c4-.4,7.2,2.3,7.6,6.5a7.2,7.2,0,0,1-6.4,7.8A6.7,6.7,0,0,1,208.7,70Zm12.1-1c-.4-4-2.9-6.3-5.7-6s-4.9,2.7-4.6,6.5,3,6.3,5.7,6.1S221.1,72.9,220.8,69Z"/><path class="cls-2" d="M238.7,75.7l-.2-12.1h-.2l-4.7,11.5h-.9l-4.1-11.7h-.2l-.8,12.1h-1.1l.9-13.7h2.5l3.6,10.6h.2L237.9,62h2.4l.2,13.8Z"/><path class="cls-2" d="M250.8,77,253,63.4l3.7.5c3.5.5,4.9,2.7,4.6,4.6s-3.1,4.1-6,3.6l-1.8-.4-.9,5.5Zm3.9-12.5-1.1,6.3,1.8.4a3.2,3.2,0,1,0,1.2-6.3Z"/><path class="cls-2" d="M269.6,80.7l-.4-4.9-5-1.2-2.6,4.2-1-.2L267.8,67a2.4,2.4,0,0,1-.6-2.3,2.3,2.3,0,0,1,2.9-1.9,2.5,2.5,0,0,1,.1,4.8l1.2,13.6ZM268.5,68h-.1l-3.7,5.9,4.4,1.1Zm2.5-2.4a1.5,1.5,0,0,0-1.1-2,1.7,1.7,0,0,0-1.9,1.3,1.6,1.6,0,0,0,1.1,1.9A1.5,1.5,0,0,0,271,65.6Z"/><path class="cls-2" d="M289.9,81.2l1.6.6-1.8,4.8a7.6,7.6,0,0,1-4.2-.3c-4-1.5-5.9-5.4-4.4-9.3a7.1,7.1,0,0,1,9.4-4.2,8.1,8.1,0,0,1,3.7,2.7l-1.1.9a5.2,5.2,0,0,0-3-2.8c-2.8-1.1-5.8.3-7.1,3.9s.1,6.9,3,8l2.1.4Z"/><path class="cls-2" d="M300,92.3l-.8-6.9-1.9-1-2.6,5.4-1.6-.8L299,76.6l3.6,1.6c3.2,1.4,3.8,3.6,3,5.3a4.2,4.2,0,0,1-4.7,2.2l1,7.5Zm.3-14.1-2.6,5.3,1.4.8c1.9.9,3.8.6,4.6-1.2s.2-3.2-1.7-4.1Z"/><path class="cls-2" d="M310.6,98.2l2.3-3.9-4.1-2.5-4.5,2.6-1-.6L317,86l7.8,4.7-.6,1.1a14.5,14.5,0,0,0-3-2.2l-2.4-1.5L316,92.7l4,2.5-.4.8-4.1-2.5-2.9,4.8,2.4,1.5a14,14,0,0,0,3.4,1.6l-.7,1.1Zm6.6-11h-.1l-7.4,4.2,3.7,2.2Z"/><path class="cls-2" d="M321.2,102.7a6.3,6.3,0,0,0,2.2,3.4c1.8,1.4,3.4,1,4.2-.1s.7-2.2-1-4.7-1.9-4-.7-5.6,3.4-2.1,5.9-.2a11.2,11.2,0,0,1,2.8,3.1l-1.2.8a6.2,6.2,0,0,0-2.2-3.3c-1.6-1.1-3.1-.9-3.8.1s-.5,2.4,1,4.6,1.9,4.1.7,5.7-3.7,2.2-6.3.2a7.9,7.9,0,0,1-2.7-3.1Z"/><path class="cls-2" d="M335.9,117.1l1-8.2h-2.3l-3.4,4-1.4-1.2,9.1-10.4,1.4,1.2-4.8,5.4,10-.8,1.1,1-8,.6-1,9.7Z"/><path class="cls-2" d="M344.2,125.2l10.2-9.1,2.7,2.9c2.5,2.6,2.1,4.6.9,5.7a3.8,3.8,0,0,1-4.7,0h-.1c1.3,2,1.1,3.7-.1,4.8s-4.3,1.1-6.4-1.5Zm3.2,2.4c1.4,1.6,3.1,1.8,4.5.6s1.1-3-.5-4.8l-1.1-1.2L346,126Zm4.8-4.6c1.4,1.6,3.2,1.5,4.1.6s1.3-2.6-.3-4.4l-1-1.2-4,3.6Z"/><path class="cls-2" d="M352.6,135l10.9-8.3,5,6.6-1,.8a13.1,13.1,0,0,0-1.9-3.2l-1.7-2.3-4.3,3.3,2.8,3.8-.7.5-2.9-3.8-4.4,3.4,1.6,2.3a13.5,13.5,0,0,0,2.6,2.7l-1,.8Z"/><path class="cls-2" d="M361.3,147.2l10.8-6.9-.6-1a13.3,13.3,0,0,0-2.2-2.7l1.1-.7,6,9.3-1.1.7a13.1,13.1,0,0,0-1.6-3.1l-.6-1-10.8,6.9Z"/><path class="cls-2" d="M368,158.5l5.2-2.7,4.7-8,1,1.9-4.1,6.7h0l7.9.4.6,1-9.3-.5-5.1,2.7Z"/><path class="cls-2" d="M372,166.3l12.6-5.4,1.5,3.3c1.9,4.1.4,8.1-3.2,9.6s-7.8.3-9.6-4.2Zm2.3,3.2c1.3,3,4.3,4.1,7.5,2.7s4.8-4.6,3.3-8l-.5-1.3-11.1,4.7Z"/><path class="cls-2" d="M377.5,179.9l13.1-4.3,2.6,7.9-1.2.4a14,14,0,0,0-.8-3.6l-.9-2.7-5.1,1.7,1.4,4.5-.8.3-1.5-4.5-5.3,1.7.8,2.7a10.8,10.8,0,0,0,1.6,3.4l-1.3.4Z"/><path class="cls-2" d="M382.9,198.8l4.9-5-.4-2.1-5.8,1.4-.5-1.7,13.4-3.3,1,3.8c.9,3.3-.4,5.2-2.3,5.7a3.9,3.9,0,0,1-4.5-2.3l-5.3,5.5Zm11.2-8.7-5.8,1.4c.1.4.2,1,.3,1.6s1.9,3.2,3.8,2.7,2.6-1.8,2.1-3.9Z"/><path class="cls-2" d="M383.6,211.1l2.5,1.1a7,7,0,0,1,5.7-3.6,7.1,7.1,0,0,1,8,6.2,7.2,7.2,0,0,1-.4,3.3l2,.9v1l-2.4-1.1a6.9,6.9,0,0,1-5.6,3.7,7.3,7.3,0,0,1-7.7-9.6l-2.1-.9Zm3.3,2.4a4.5,4.5,0,0,0-.6,2.8c.3,2.7,2.8,4.8,6.7,4.4a7.3,7.3,0,0,0,4.8-2.4Zm11.4,4.2a4.9,4.9,0,0,0,.6-2.9c-.3-2.8-2.8-4.8-6.7-4.4a7.6,7.6,0,0,0-4.8,2.4Z"/><path class="cls-2" d="M400.4,230.4v1.8l-9.3.2c-3.4.1-4.9-1.7-4.9-4a4.4,4.4,0,0,1,2.1-4l1.2,1-.4.2a2.8,2.8,0,0,0-2,2.7c0,1.5,1.2,2.4,3.4,2.4Z"/><path class="cls-2" d="M386.7,236.9l13.7.6-.4,8.3h-1.3a14.1,14.1,0,0,0,.6-3.7v-2.8L394,239l-.2,4.7h-.9l.2-4.7-5.6-.3v2.8a12.8,12.8,0,0,0,.2,3.7h-1.3Z"/><path class="cls-2" d="M392.1,255.5a7.1,7.1,0,0,1,5.9,8.2,7,7,0,0,1-8.3,5.7,7.2,7.2,0,0,1-5.9-8.3A6.7,6.7,0,0,1,392.1,255.5Zm-2.3,11.9c3.9.7,6.8-1.1,7.3-3.9s-1.3-5.4-5.1-6.1-6.8,1.2-7.3,3.9S386,266.7,389.8,267.4Z"/><path class="cls-2" d="M385.1,282.1l-.5,1.7-5-1.4a9,9,0,0,1,.1-4.3c1.2-4.1,4.9-6.3,8.9-5.1a7.1,7.1,0,0,1,4.9,9.1A7,7,0,0,1,391,286l-.9-1a5.4,5.4,0,0,0,2.6-3.3c.8-2.8-.7-5.7-4.4-6.8s-6.9.7-7.8,3.6a8.6,8.6,0,0,0-.2,2.2Z"/><path class="cls-2" d="M372.5,298.2l4.9.5,2-4.7-3.7-3.3.4-1,10.1,9,.6.3-.2,2.2L371.8,300Zm12.8,1.1h0l-5.2-4.6-1.7,4.1Z"/><path class="cls-2" d="M366.3,310.2l13.9-1h0l-10.3-5.5.5-.9,12.1,6.4-.8,1.8-13.9,1h0l10.3,5.5-.5.9L365.5,312Z"/><path class="cls-2" d="M364.9,316.5a6.6,6.6,0,0,0-3.2,2.4c-1.2,1.9-.8,3.4.4,4.2s2.2.6,4.6-1.3,3.9-2.2,5.6-1.1,2.2,3.3.5,6a10,10,0,0,1-2.9,2.9l-.9-1.1a6.6,6.6,0,0,0,3.1-2.4c1.1-1.7.8-3.2-.3-3.9s-2.4-.3-4.5,1.3-4,2.2-5.7,1.2-2.3-3.7-.6-6.4a10.3,10.3,0,0,1,3-2.9Z"/><path class="cls-2" d="M356.4,325.7l11,8.2-1.1,1.4-11-8.2Z"/><path class="cls-2" d="M351.5,341.3l-1.2,1.4-3.9-3.3a7.4,7.4,0,0,1,1.8-3.9,6.9,6.9,0,0,1,10.2-1,7.2,7.2,0,0,1,.8,10.3,8.7,8.7,0,0,1-3.9,2.5l-.5-1.3a5.4,5.4,0,0,0,3.8-1.9c1.9-2.3,1.7-5.5-1.3-8s-6.6-2.2-8.5.1a5.2,5.2,0,0,0-1.1,1.9Z"/><path class="cls-2" d="M340.5,344.2l9.1,9.1.8-.8a15.4,15.4,0,0,0,2.2-2.7l.9.9-7.9,7.8-.9-.9a15.6,15.6,0,0,0,2.8-2.2l.8-.8-9.1-9.1Z"/><path class="cls-2" d="M323.1,354.4l7.7,18.3-.7.5-7.7-18.3Z"/><path class="cls-2" d="M307.9,369.3l6.5,12.1-7.3,3.9-.6-1.1a11.6,11.6,0,0,0,3.5-1.5l2.5-1.3-2.6-4.7-4.2,2.2-.4-.8,4.1-2.2-2.6-5-2.5,1.3a13.2,13.2,0,0,0-3.1,2.2l-.6-1.2Z"/><path class="cls-2" d="M294.5,376.1l5.2,11.7,1-.4a14.1,14.1,0,0,0,3.1-1.8l.5,1.2-10.1,4.5-.5-1.2A9.7,9.7,0,0,0,297,389l1-.4-5.2-11.8Z"/><path class="cls-2" d="M279.8,381.9l3,3.9,4.8-1.7v-5l1-.3.3,13.5.2.5-1.7,1.4L278,382.6Zm7.9,10.1h.2l-.2-6.9-4.3,1.6Z"/><path class="cls-2" d="M275.1,383.5l3.6,13.2-3.7,1.1c-3.5,1.1-5.1-.2-5.5-1.7a3.7,3.7,0,0,1,2-4.2h0c-2.4.2-3.9-.7-4.3-2.3s.9-4.3,4.2-5.1Zm-3.6,1.8c-2,.6-3,2-2.5,3.7s2.3,2.4,4.5,1.7l1.6-.4-1.5-5.6Zm2,6.4a2.9,2.9,0,0,0-2.4,3.4c.5,1.6,1.8,2.3,4.2,1.7l1.5-.4-1.5-5.2Z"/><path class="cls-2" d="M262.7,386.7l2.6,13.4-1.8.4-2.4-12.6-2.7.5a18.8,18.8,0,0,0-3.6,1l-.3-1.2Z"/><path class="cls-2" d="M251.3,388.7l1.6,13.6-8.3,1V402a11.2,11.2,0,0,0,3.7,0l2.8-.3-.6-5.4-4.7.5v-.9l4.7-.5-.7-5.6-2.7.3a15,15,0,0,0-3.7.8l-.2-1.2Z"/><path class="cls-2" d="M231.8,390.2l3.9,5.8h2.1l-.2-6h1.8l.5,13.8-3.9.2c-3.5.2-5.1-1.4-5.1-3.3s1.1-3.4,3.1-4.1l-4.3-6.2Zm6.3,12.7-.3-5.9h-1.6c-2.1.1-3.5,1.2-3.5,3.2s1.4,2.9,3.5,2.8Z"/><path class="cls-2" d="M226.5,390.2l-.6,13.8-8.3-.4v-1.2a19.2,19.2,0,0,0,3.7.5h2.8l.2-5.4-4.7-.2v-.9l4.7.2.3-5.6-2.8-.2a17.4,17.4,0,0,0-3.8.3v-1.3Z"/><path class="cls-2" d="M211.5,389.2,210,402h1.1a10.2,10.2,0,0,0,3.5,0v1.3l-11.1-1.3.2-1.3a12.1,12.1,0,0,0,3.4.8l1.2.2,1.5-12.8Z"/><path class="cls-2" d="M197.1,386.9l-.2,1.3c-4,1.6-6.7,2.8-7.2,4.6a2.2,2.2,0,0,0,1.9,2.7,4,4,0,0,0,3.3-.8l.3.7a5.3,5.3,0,0,1-4.7,1.2,3.2,3.2,0,0,1-2.6-3.7c.6-2.4,3-3.3,7.1-4.8l-6-1.4.4-1.6Z"/><path class="cls-2" d="M185.2,389.3c-1,3.2-3.6,5-6.5,4s-3.8-3.5-2.9-6.6,3.6-5,6.5-4S186.2,386.2,185.2,389.3Zm-7.6-2.4c-1,3.2,0,5.2,1.6,5.7s3.4-.7,4.2-3.5.1-5.1-1.5-5.7S178.5,384.1,177.6,386.9Z"/><path class="cls-2" d="M174.8,380.5l-.4,1.3c-4.2.9-7.1,1.7-7.8,3.5a2.1,2.1,0,0,0,1.4,2.8,4,4,0,0,0,3.4-.2l.3.7a5.1,5.1,0,0,1-4.8.5c-1.9-.8-2.7-2.5-2.1-4.1s3.5-2.7,7.7-3.7l-5.7-2.2.6-1.6Z"/><path class="cls-2" d="M162.6,381.1c-1.4,3-4.2,4.3-6.9,3s-3.4-4.1-1.9-7,4.2-4.4,7-3S164.1,378.2,162.6,381.1Zm-7.1-3.5c-1.5,3-.8,5.1.7,5.8s3.5-.1,4.7-2.8.8-5.1-.7-5.8S156.7,375,155.5,377.6Z"/><path class="cls-2" d="M145.7,361.5l-14.8,13.3-.8-.5L144.9,361Z"/><path class="cls-2" d="M122.5,357.6a7.3,7.3,0,0,1-10.2.5,6.9,6.9,0,0,1-.3-10,7.3,7.3,0,0,1,10.2-.5A6.9,6.9,0,0,1,122.5,357.6Zm-8.9-8.3c-2.7,2.9-2.7,6.3-.6,8.2s5.3,1.8,7.9-1,2.7-6.4.7-8.3S116.3,346.4,113.6,349.3Z"/><path class="cls-2" d="M114.5,340.4l-10.3,9.2-2.6-2.8c-2.4-2.6-2.1-5.1-.6-6.4s5-1.2,6.9,1l1.2,1.4,4.2-3.7Zm-10.9,7.2,4.8-4.2a11,11,0,0,0-1.1-1.4,3.1,3.1,0,0,0-4.7-.4,3,3,0,0,0-.2,4.6Z"/><path class="cls-2" d="M106.4,331l-10.8,8.5-1.1-1.4,10.7-8.5Z"/><path class="cls-2" d="M98.1,319.7l-3,3.9,2.9,4.2,4.7-1.4.6.8L90.4,331l-.5.3L88.1,330,97,318.1Zm-7.8,10.2h.1l6.7-2-2.6-3.7Z"/><path class="cls-2" d="M91.4,308.5l-9.8,10.8-.9-1.7,8.6-9.4h0l-12.7,2-.5-.9,14.5-2.3Z"/><path class="cls-2" d="M87,299.8l-12.5,5.8-.8-1.6,12.5-5.8Z"/><path class="cls-2" d="M81.4,286.2l-8.3,11.1h0L84,293.2l.4,1-12.8,4.9-.8-1.8,8.3-11.1h0l-10.9,4.2-.4-1,12.8-4.9Z"/><path class="cls-2" d="M73.9,250.7c1.2,10.1-4.6,18.3-15.8,19.6s-18.8-5.4-20-15.5,4.5-18.2,15.7-19.5S72.7,240.6,73.9,250.7Zm-30.2,3.6c.7,6.5,6.1,10.2,13.4,9.3s12-5.7,11.2-12.4-6.2-10.1-13.5-9.3S42.9,247.6,43.7,254.3Z"/><path class="cls-2" d="M62.4,213.1,62,217l10.6,1.3-.8,6.7-34.1-4.2s1.3-11,1.3-11.1c1.2-9.4,6.5-13.5,13.2-12.6S63.5,204,62.4,213.1Zm-17.8-2.2c-.1.4-.6,4-.6,4l12.5,1.6.4-4.3c.5-5.1-1.3-7.9-5.3-8.4S45.2,205.6,44.6,210.9Z"/><path class="cls-2" d="M77.4,192.1l-33-9.7,1.8-6.4,33,9.7Z"/><path class="cls-2" d="M95,149.4l-2.9,6.1-8.6-1-6.1,12.4,6.1,6.1-2.9,6.1L55.2,152.8l3.5-7.3Zm-32.9,2.3,11.1,11.2,4.6-9.3Z"/><g class="cls-3"><path class="cls-4" d="M155.3-163c0,91.1-99.8,212-165,165S-255.6,24.3-272.9-163v-31.4c0-91.1,102.3-199.7,165-165,154.3,158.4,236,49.5,263.2,165Z"/></g></svg>
